PathFileType	4	(X/Y/Z)	Kaydara																																																																																																																									
DataRate	CameraRate	NumFrames	NumMarkers	Units	OrigDataRate	OrigDataStartFrame	OrigNumFrames																																																																																																																					
30	30	4	41	mm	30	122	195																																																																																																																					
Frame#	Time	NABA_LFHD			NABA_RFHD			NABA_LBHD			NABA_RBHD			NABA_LFTShould			NABA_RFTShould			NABA_LRRShould			NABA_RRRShould			NABA_T10			NABA_STRN			NABA_TRUN			NABA_LSHO			NABA_LUPA			NABA_LELB			NABA_LFRM			NABA_LWRA			NABA_LWRB			NABA_LFIN			NABA_RSHO			NABA_RUPA			NABA_RELB			NABA_RFRM			NABA_RWRA			NABA_RWRB			NABA_RFIN			NABA_LFWT			NABA_RFWT			NABA_LBWT			NABA_RBWT			NABA_LTHI			NABA_LKNE			NABA_LSHN			NABA_LANK			NABA_LHEE			NABA_LTOE			NABA_RTHI			NABA_RKNE			NABA_RSHN			NABA_RANK			NABA_RHEE			NABA_RTOE		
		X1	Y1	Z1	X2	Y2	Z2	X3	Y3	Z3	X4	Y4	Z4	X5	Y5	Z5	X6	Y6	Z6	X7	Y7	Z7	X8	Y8	Z8	X9	Y9	Z9	X10	Y10	Z10	X11	Y11	Z11	X12	Y12	Z12	X13	Y13	Z13	X14	Y14	Z14	X15	Y15	Z15	X16	Y16	Z16	X17	Y17	Z17	X18	Y18	Z18	X19	Y19	Z19	X20	Y20	Z20	X21	Y21	Z21	X22	Y22	Z22	X23	Y23	Z23	X24	Y24	Z24	X25	Y25	Z25	X26	Y26	Z26	X27	Y27	Z27	X28	Y28	Z28	X29	Y29	Z29	X30	Y30	Z30	X31	Y31	Z31	X32	Y32	Z32	X33	Y33	Z33	X34	Y34	Z34	X35	Y35	Z35	X36	Y36	Z36	X37	Y37	Z37	X38	Y38	Z38	X39	Y39	Z39	X40	Y40	Z40	X41	Y41	Z41
																																																																																																																												
122	4.043	184.87221	1575.00443	-222.58383	15.17228	1558.57742	-197.75961	199.86599	1533.05191	-341.00971	-18.13057	1532.66464	-291.11511	172.02782	1299.74655	-203.95176	36.81893	1290.64941	-219.78943	187.26641	1337.98004	-330.38559	37.85836	1329.09592	-340.19855	134.93353	1163.08128	-382.42336	100.63191	1248.04779	-159.17316	95.85626	1157.6368	-99.73116	276.24079	1316.0553	-246.40276	333.13469	1076.83655	-252.76711	345.96664	999.18915	-216.63422	337.01706	921.58493	-218.44328	283.35339	805.89584	-96.72543	354.55658	802.5766	-103.05746	339.04213	763.2795	-43.4321	-50.34525	1303.20404	-285.78928	-70.35047	1110.19615	-368.1649	-112.88846	986.05789	-346.69075	-122.36651	893.76793	-353.79929	-98.14061	755.32852	-275.1236	-166.13598	752.25334	-305.26163	-164.08421	708.90732	-277.45256	236.30968	901.18927	-165.26649	-28.01324	915.10712	-175.97546	189.70976	973.87573	-333.4288	28.3039	986.86699	-347.81151	238.75835	621.53248	-346.8248	244.70512	466.38374	-323.29941	200.58954	291.76821	-423.68832	228.51255	234.54798	-581.65958	174.88819	246.50261	-650.11299	170.85844	62.69142	-589.80232	-28.92575	619.62547	-249.54393	-1.38223	496.80779	-96.29137	15.91421	322.72282	-72.94911	14.07843	120.99759	-93.14533	63.34746	68.05183	-153.5711	42.47139	54.84682	44.79461
123	4.077	183.23919	1583.60168	-176.47383	13.62585	1567.20352	-151.3282	198.36393	1539.68185	-294.14751	-19.49728	1539.58405	-244.32072	170.44533	1308.83728	-156.0842	36.36072	1299.47678	-171.43818	185.56179	1347.12051	-281.39326	36.14721	1337.96509	-290.26995	132.39987	1172.2303	-335.18574	99.38162	1257.70805	-110.15176	94.82563	1166.29707	-51.76964	274.88255	1325.8252	-197.35643	330.83706	1087.07062	-208.91443	342.07275	1007.92145	-176.87119	332.9211	931.00166	-184.22449	281.70073	805.09109	-72.77891	352.86175	803.09479	-80.20389	337.41024	757.13753	-24.57431	-51.7099	1312.32803	-234.91819	-74.69469	1117.74193	-314.9399	-116.3931	994.44969	-291.68276	-126.2893	901.61888	-296.11477	-102.22301	765.53909	-213.47275	-170.52134	761.89667	-243.07522	-169.12333	719.80568	-213.84098	233.5681	905.78033	-122.43276	-31.26255	922.46208	-131.37395	187.09515	977.04285	-291.46353	26.29406	995.36018	-303.81506	236.33518	613.77796	-278.94997	242.77122	461.70933	-234.03278	197.07598	295.5299	-339.96944	230.1597	250.29224	-500.662	176.33415	268.0444	-567.94777	182.61759	76.95055	-534.65237	-31.27294	626.75255	-219.1552	-3.91355	495.19833	-73.0908	13.95165	320.33852	-58.32149	14.33035	120.09132	-89.60109	64.28754	69.62871	-152.19362	43.75067	54.33025	45.28392
124	4.11	182.71513	1590.26093	-130.44391	13.12196	1574.17618	-104.61611	197.47387	1545.04227	-247.64582	-20.2375	1545.52612	-197.18868	170.01816	1315.00519	-110.38193	36.36375	1305.41412	-123.92456	183.78578	1354.23798	-235.64028	33.92289	1345.8139	-242.16152	128.32945	1180.42686	-291.0137	99.77129	1263.09525	-63.77948	96.2543	1170.25986	-7.45807	273.99776	1332.38724	-152.38466	329.36974	1093.64487	-167.95376	339.75807	1013.92815	-138.3994	331.539	938.26981	-151.43293	281.43017	803.0928	-50.69972	352.95158	803.01193	-57.84585	335.66006	750.04425	-7.56346	-52.80691	1319.89105	-184.5159	-81.51576	1124.15466	-262.07047	-121.53619	1001.15227	-235.64596	-131.74029	907.72415	-236.8173	-104.72045	774.44199	-150.28714	-174.03553	770.08392	-177.19954	-172.54927	729.88029	-146.26721	233.53619	911.22887	-82.24874	-30.68162	928.32596	-87.25596	183.65446	981.86996	-250.53852	23.15302	1002.14767	-260.0091	235.44125	610.82924	-207.22527	239.86958	464.3277	-143.90973	190.75445	302.58381	-251.30011	226.67402	260.97189	-412.0348	171.95204	280.97076	-480.70007	190.18948	92.9808	-434.43626	-33.16387	633.32161	-188.4399	-4.82874	494.24603	-51.73297	15.60264	318.95798	-44.59577	14.85469	119.55857	-84.84426	64.81158	70.9343	-151.05029	43.75744	54.19728	45.73375
125	4.143	183.23347	1595.1091	-84.55216	13.89387	1579.35043	-57.71433	197.11025	1550.3392	-202.00171	-20.28362	1551.17691	-150.03976	170.63423	1318.55392	-66.683	36.72897	1309.93439	-77.92525	181.96449	1359.60403	-191.83439	31.60154	1352.37625	-195.66017	123.14851	1187.01469	-248.21142	101.4355	1265.2433	-20.46329	98.49931	1171.95496	34.95778	273.66972	1335.75394	-111.0801	327.48837	1096.89415	-132.46026	338.23658	1016.82457	-104.96452	330.1321	942.56111	-121.49985	282.36242	801.04919	-30.03278	353.94321	802.51129	-36.21585	334.59427	743.65814	8.68841	-53.45079	1326.03714	-135.35291	-89.59146	1128.7262	-210.05253	-127.69499	1006.4389	-179.04476	-137.89566	912.47841	-176.10153	-105.55474	782.78702	-85.56846	-176.34157	777.49336	-108.37248	-173.73312	739.52415	-75.60005	232.64013	918.32054	-40.0528	-31.95243	931.92932	-44.94532	181.18614	987.77199	-209.1674	20.70732	1006.71532	-218.08788	233.59148	612.89696	-137.56858	236.00044	474.32091	-59.29272	187.62989	308.39733	-155.63725	221.65445	260.09954	-315.1223	166.0388	274.20931	-386.3419	192.60223	95.87385	-316.84557	-33.52142	638.31631	-160.34397	-3.71884	492.01328	-31.20363	16.80206	316.76296	-32.69576	15.95047	119.23149	-81.59514	66.64325	72.30951	-149.59017	44.12261	54.19353	46.09951
